

[center]

Joyful Noise 2012 READNFO CAM XViD - HOPE


Plot: 
G.G. Sparrow faces off with her choir's newly appointed director, Vi Rose Hill, over the group's direction as they head into a national competition. 

IMDB: 
www.imdb.com/title/tt1710396/

Information:
Format                           : AVI
Format/Info                      : Audio Video Interleave
File size                        : 1 012 MiB
Duration                         : 1h 52mn
Overall bit rate                 : 1 256 Kbps

Video
ID                               : 0
Format                           : MPEG-4 Visual
Format profile                   : Advanced Simple@L5
Format settings, BVOP            : 2
Format settings, QPel            : No
Format settings, GMC             : No warppoints
Format settings, Matrix          : Default (H.263)
Muxing mode                      : Packed bitstream
Codec ID                         : XVID
Codec ID/Hint                    : XviD
Duration                         : 1h 52mn
Bit rate                         : 1 121 Kbps
Width                            : 720 pixels
Height                           : 384 pixels
Display aspect ratio             : 1.875
Frame rate                       : 29.970 fps
Color space                      : YUV
Chroma subsampling               : 4:2:0
Bit depth                        : 8 bits
Scan type                        : Progressive
Compression mode                 : Lossy
Bits/(Pixel*Frame)               : 0.135
Stream size                      : 903 MiB (89%)
Writing library                  : XviD 64

Audio
ID                               : 1
Format                           : MPEG Audio
Format version                   : Version 1
Format profile                   : Layer 3
Mode                             : Joint stereo
Codec ID                         : 55
Codec ID/Hint                    : MP3
Duration                         : 1h 52mn
Bit rate mode                    : Constant
Bit rate                         : 128 Kbps
Channel(s)                       : 2 channels
Sampling rate                    : 48.0 KHz
Compression mode                 : Lossy
Stream size                      : 103 MiB (10%)
Alignment                        : Aligned on interleaves
Interleave, duration             : 133 ms (4.00 video frames)
Interleave, preload duration     : 216 ms

Screene:

[img]http://img263.imageshack.us/img263/8918/vts011p2avisnapshot0011.jpg[/img]
[img]http://img32.imageshack.us/img32/5755/vts011p2avisnapshot0012.jpg[/img]
[img]http://img259.imageshack.us/img259/7870/vts011p2avisnapshot0035.jpg[/img]
[img]http://img46.imageshack.us/img46/193/vts011p2avisnapshot0034.jpg[/img]
[img]http://img24.imageshack.us/img24/2836/vts011p2avisnapshot0050.jpg[/img]
[img]http://img407.imageshack.us/img407/2364/vts011p2avisnapshot0118.jpg[/img]
[img]http://img826.imageshack.us/img826/453/vts011p2avisnapshot0123.jpg[/img]
[img]http://img600.imageshack.us/img600/3634/vts011p2avisnapshot0108.jpg[/img]
[img]http://img138.imageshack.us/img138/2364/vts011p2avisnapshot0118.jpg[/img]
[img]http://img577.imageshack.us/img577/1705/vts011p2avisnapshot0132.jpg[/img][/center]